<?xml version="1.0" encoding="UTF-8"?>
<svg id="Layer_1" xmlns="http://www.w3.org/2000/svg" version="1.1" viewBox="0 0 300 150">
  <!-- Generator: Adobe Illustrator 29.1.0, SVG Export Plug-In . SVG Version: 2.1.0 Build 142)  -->
  <defs>
    <style>
      .st0 {
        fill-rule: evenodd;
      }

      .st0, .st1 {
        fill: #194c50;
      }
    </style>
  </defs>
  <path class="st0" d="M70.6,54.7c.8.5,1.9.6,2.3,1.5.6,1.5,0,3.5-.6,4.7-3.2,6.3-7.9,11-14.6,13.6-2.1.8-4.3,1.2-6.9,1.6-1.1.1-2.5,0-3,.8-.4.5-.6,1.3-.8,2-1.1,3.3-1.6,7.8-1.1,12.1,0,.8.2,1.6.4,2.4.2,1.2.3,2.4,1.1,3,.7.5,1.9.9,2.9,1.2,3,1.1,5.9,2.2,8.5,3.7,6.7,4,11.2,10.4,14.3,18.3.7,1.9,1.4,3.9,2.2,6,.3.9.7,2,.9,3.2,0,.5.2,1.1.3,1.7.4,1.5.3,3-1.4,3s-3.8-1.9-5-3c-8.7-7.3-16.4-15.6-21.4-26.4-.4-.9-.9-1.8-1.3-2.7-.2-.5-.4-1-.5-1.5-.3-1.4-.6-2.4-1.9-3-.6-.3-1.4-.4-2.2-.7-4.3-1.5-8.2-3.4-11.4-5.9-4.5-3.4-7.9-7.5-10.7-12.3-1.4-2.4-2.6-5.2-3.1-8.5-.5-3.3-.6-7.1-2-9.5-1.5-2.5-4.1-3.5-6.7-4.8-1.8-.9-3.9-1.9-5.9-2.8-.6-.3-1.5-.6-1.9-1-.2-.2-.3-.5-.5-.7-.1-.2-.4-.4-.4-.7.9-.5,1.6-.6,2.6-.5,2.8.3,5.4,1.2,8,1.8,2,.5,3.9.4,5.6-.2,1.7-.6,3.3-1.2,5.4-1.2,4.2,0,7.2,1.6,9.3,3.8,2.1,2.3,3.6,5.2,5,8.1,4.1-7.2,9.4-13.4,14.8-19.5,5.3-6,10.8-12,17.1-17.2,2-1.7,4.1-3.5,6.4-5,2.3-1.5,4.9-3,8-3.4,1.1-.2,2.1,0,2.4.9.3.7.2,1.9,0,2.9-1,6.4-2.8,12.4-5,17.6-2.6,6.2-5.7,11.6-9.3,16.6M78,19.7c-1.7,1-3.4,2.1-5,3.2-2.2,1.5-4.2,3.3-6,4.9-7.8,6.8-14.6,14.4-21.1,22.5-2.8,3.4-5.3,7.4-7.9,11.2-.4.6-.9,1.2-.8,1.9,0,.4.4.9.5,1.2.7,1.2,1.4,2.4,2,3.4,1.3,2.1,2.8,4.7,6.3,4.5,2.1-.2,3.5-1.4,4.5-2.7,4.3-5.4,9.3-10,15.6-13.3.8-.4,1.7-.7,2.4-1.3,1-.8,2-2.4,2.9-3.7.9-1.3,1.8-2.8,2.5-4,4.5-7.6,7.8-16.2,9.7-26.6.1-.7.5-2.4,0-2.8-.2-.1-.6-.1-.8-.1-2.2,0-3.4.9-4.8,1.8M2.6,50.8c2.4,1.3,5,2.5,7.4,3.5,2.6,1.2,4.7,2.4,6.2,4.8.7,1.1,1.3,2.4,1.6,3.8.4,1.5.5,3.1.6,4.8.4,3.3,1.4,6,2.5,8.5,2.3,4.9,5.8,8.9,9.8,12.1,4,3.3,9.1,5.6,14.6,7.4-1.6-5.9-1.3-14.4,1-19.1-4.6-1.5-10.9-1.8-12.1-6.6-.4-1.5,0-2.7.4-4,.4-1.2.5-2.6,0-4-.4-1.2-1-2.1-1.6-3.1-.6-1-1.1-2.1-1.6-3-1.1-1.7-2.9-3.3-5.3-4-2.3-.8-5.5-1-8.1-.1-1.2.4-2.3.9-3.7,1-1.5.2-2.9,0-4.3-.3-2.5-.6-5.1-1.3-7.7-1.8,0,0,0,.1,0,0M63.9,69.4c2.8-2.3,5.4-5.2,7.1-8.7.5-1.1,2.3-4.8-.5-4.6-1.5.1-2.3,1.6-3.2,2.5-4.2,4.6-8.8,8.4-14.2,11.7-1,.6-1.9,1.1-2.6,1.7-.4.4-.8.9-1.1,1.4-.3.5-.7,1-.8,1.7,6.5-.5,11.3-2.5,15.3-5.8M53.1,68.8c4.9-3,9.4-6.6,12.9-10.8-5,2.9-9.4,6.5-12.9,10.8M35.4,68.2c0,4.7,5.4,5.9,9.7,6.6.7.1,1.5.3,2.1,0,.6-.3.9-1.3,1-2-1,.4-2,.8-3.3.8-2.5,0-4-1.9-5.1-3.4-1.3-1.8-2.2-3.6-3.2-5.3,0,0,0,0,0,0,0,0,0,0,0,0-.5,1.1-.9,2.1-.9,3.3M49.6,103.5c4.9,10.5,12.1,18.4,20.2,25.5.6.5,1.2,1.1,2.1,1.7.4.3,2,1.4,2.6,1.1.3-.1.4-.9.4-1.6,0-.9-.5-2-.8-2.9-.3-1-.6-2-.8-2.9-2.9-9.8-7.5-17.4-15.3-22.1-3.1-1.9-6.7-3.2-10.5-4.5.3,1.9,1.3,3.8,2.2,5.6"/>
  <g>
    <path class="st1" d="M117.2,67.7v8.6c-1.7,1.2-4.1,2-7.3,2-5.6,0-9.9-3.9-9.9-9.6s4.4-9.6,10.3-9.6,4.3.5,5.8,1.3l.3,4.5c-1.9-1.4-3.9-2-6.1-2-3.7,0-5.9,2.5-5.9,5.8s2.5,5.9,5.6,5.9,2.5-.2,3.8-.8v-2.5h-4.1l.6-3.5h6.9Z"/>
    <path class="st1" d="M139.7,74.4h-7l-1.5,3.6h-4.4l8.5-18.8h1.7l8.6,18.8h-4.4l-1.5-3.6ZM138.3,71l-2-5h-.1l-2,5h4.2Z"/>
    <path class="st1" d="M161.9,71.4h-1.8v6.6h-4.2v-18.6h6.6c4.5,0,6.8,2.8,6.8,5.9s-1.3,4.2-3.2,5.2l5.5,7.5h-5l-4.5-6.6ZM160.1,67.9h2c1.7,0,2.8-.8,2.8-2.4s-1.1-2.4-2.8-2.4h-2v4.8Z"/>
    <path class="st1" d="M181.2,76.5l-.3-4.5c1.7,1.6,4.3,2.5,6,2.5s2.5-.7,2.5-1.8-1.6-1.7-3.4-2.3c-3.2-1.2-5.1-2.7-5.1-5.7s2.3-5.6,6.5-5.6,3.2.4,4.6.9l.4,4.5c-1.8-1.1-3.6-1.7-5.2-1.7s-2.3.7-2.3,1.6c0,1.3,1.6,1.8,3.5,2.5,2.5.9,4.9,2.2,4.9,5.6s-2.9,5.7-6.7,5.7-4-.6-5.6-1.7Z"/>
    <path class="st1" d="M218.8,63.1h-5.6v14.9h-4.2v-14.9h-5.6v-3.7h15.5v3.7Z"/>
    <path class="st1" d="M238.4,74.4h-7l-1.5,3.6h-4.4l8.5-18.8h1.7l8.6,18.8h-4.4l-1.5-3.6ZM237,71l-2-5h-.1l-2,5h4.2Z"/>
    <path class="st1" d="M258.7,67.2h0v10.8c0,0-4.1,0-4.1,0v-18.8h1.8l10.7,10.6h0v-10.4c0,0,4.1,0,4.1,0v18.8h-1.6l-10.9-10.9Z"/>
    <path class="st1" d="M299.9,67.7v8.6c-1.7,1.2-4.1,2-7.3,2-5.6,0-9.9-3.9-9.9-9.6s4.4-9.6,10.3-9.6,4.3.5,5.8,1.3l.3,4.5c-1.9-1.4-3.9-2-6.1-2-3.7,0-5.9,2.5-5.9,5.8s2.5,5.9,5.6,5.9,2.5-.2,3.8-.8v-2.5h-4.1l.6-3.5h6.9Z"/>
  </g>
  <g>
    <path class="st1" d="M125.2,99.6c0-3,2.2-5.1,4.9-5.1s1.9.3,2.6.7l.2,1.6c-.8-.6-1.7-1-2.7-1-2.1,0-3.5,1.6-3.5,3.8s1.4,3.8,3.6,3.8,2.1-.4,2.9-1l-.3,1.6c-.7.5-1.6.7-2.7.7-3,0-5-2.2-5-5.1Z"/>
    <path class="st1" d="M137.3,99.6c0-2.9,2.2-5.1,5-5.1s5,2.2,5,5.1-2.2,5.1-5,5.1-5-2.1-5-5.1ZM145.8,99.6c0-2.4-1.7-3.8-3.5-3.8s-3.5,1.4-3.5,3.8,1.7,3.7,3.5,3.7,3.5-1.4,3.5-3.7Z"/>
    <path class="st1" d="M152.2,100.5v-5.8h1.4v5.8c0,1.9,1,2.9,2.6,2.9s2.6-1,2.6-2.9v-5.8h1.4v5.8c0,2.5-1.6,4.1-4,4.1s-4.1-1.7-4.1-4.2Z"/>
    <path class="st1" d="M167.3,97.4h0v7.1s-1.4,0-1.4,0v-9.9h.6l6.1,7.1h0v-7s1.4,0,1.4,0v9.9h-.6l-6.2-7.2Z"/>
    <path class="st1" d="M186.5,95.9h-3.2v8.6h-1.4v-8.6h-3.2v-1.3h7.8v1.3Z"/>
    <path class="st1" d="M197,104.5l-2.8-3.8h-1.6v3.8h-1.4v-9.8h3c2.2,0,3.4,1.3,3.4,3s-.8,2.3-1.9,2.8l3.1,4.1h-1.7ZM192.6,99.4h1.4c1.2,0,2-.6,2-1.7s-.8-1.8-2-1.8h-1.5v3.5Z"/>
    <path class="st1" d="M206.5,100.5v3.9h-1.4v-4l-3.6-5.9h1.6l2.7,4.5,2.7-4.5h1.5l-3.6,5.9Z"/>
    <path class="st1" d="M228.5,94.6v9.8h-1.4v-4.3h-5.2v4.3h-1.4v-9.8h1.4v4.3h5.2v-4.3h1.4Z"/>
    <path class="st1" d="M233.6,99.6c0-2.9,2.2-5.1,5-5.1s5,2.2,5,5.1-2.2,5.1-5,5.1-5-2.1-5-5.1ZM242.1,99.6c0-2.4-1.7-3.8-3.5-3.8s-3.5,1.4-3.5,3.8,1.7,3.7,3.5,3.7,3.5-1.4,3.5-3.7Z"/>
    <path class="st1" d="M254.9,95.9h-3.2v8.6h-1.4v-8.6h-3.2v-1.3h7.8v1.3Z"/>
    <path class="st1" d="M265.5,103.2l-.3,1.3h-5.7v-9.8h5.6l.2,1.3h-4.4v3h3.9v1.2h-3.9v3.1h4.5Z"/>
    <path class="st1" d="M276,103.2l-.2,1.3h-5.2v-9.8h1.4v8.6h4.1Z"/>
  </g>
</svg>